<svg width="375.855" height="476.509" viewBox="0 0 375.855 476.509" xmlns="http://www.w3.org/2000/svg" xmlns:xlink="http://www.w3.org/1999/xlink" id="svg1" xml:space="preserve" overflow="hidden"><defs id="defs1"></defs><g id="g1"><g id="g2" transform="translate(1.17948 0)"><path d="M21.2674 233.146 21.2674-5.10835 209.195-5.10835 397.122-5.10835 397.122 233.146 397.122 471.401 209.195 471.401 21.2674 471.401ZM313.486 470.228C315.797 469.14 318.246 466.434 319.815 463.234 322.579 457.599 324.169 450.448 325.276 438.673 325.68 434.379 326.007 413.631 325.673 413.473 325.482 413.382 317.796 422.623 317.796 422.623 317.643 438.257 316.567 448.676 314.053 456.217 312.917 459.628 311.933 461.465 310.675 462.523 309.562 463.459 309.091 463.444 307.506 462.419 303.215 459.643 297.703 450.923 292.363 438.463 272.649 392.456 257.806 306.474 261.29 258.455 262.254 245.165 264.794 235.417 267.993 232.725 269.062 231.826 269.122 231.823 270.661 232.605 274.284 234.446 279.708 242.344 284.408 252.622 286.651 257.528 290.081 266.123 291.959 271.546 292.707 273.706 293.427 275.586 293.559 275.724 301.895 275.27 300.617 270.877 299.474 268.783 298.763 267.48 293.35 252.768 290.788 247.47 282.813 230.981 275.763 223.624 268.507 224.22 265.91 224.434 264.084 225.345 261.995 227.47 257.008 232.543 254.177 243.275 253.09 261.219 252.418 272.322 253.04 291.971 254.587 308.492 260.453 371.121 278.847 439.067 296.188 462.163 299.529 466.613 302.231 468.962 305.68 470.416 307.91 471.356 311.261 471.275 313.486 470.228ZM45.738 390.214C67.8077 385.843 112.192 357.382 153.922 320.841 189.949 289.294 216.285 258.512 222.542 240.638 224.852 234.036 224.314 228.714 221.012 225.509 218.526 223.097 215.558 222.228 210.649 222.477 203.663 222.83 195.527 225.597 183.013 231.876 176.901 234.942 166.866 240.515 166.017 241.314 165.819 241.501 168.475 246.363 169.784 248.209 169.815 248.253 171.136 247.522 172.718 246.584 186.633 238.335 198.64 232.859 207.013 230.942 209.768 230.312 213.733 230.251 214.867 230.822 215.691 231.236 215.745 231.371 215.826 233.212 216.041 238.109 211.26 247.332 202.361 259.183 175.378 295.116 117.145 345.104 73.7737 369.565 56.2702 379.436 41.9906 384.479 36.7325 382.646 34.0307 381.704 35.4055 375.631 40.2286 367.2 44.8429 359.135 52.1822 349.418 61.9222 338.477L66.1759 333.7 63.2853 330.988 60.3947 328.276 58.9793 329.786C47.6743 341.848 36.7838 356.364 31.8512 365.946 28.4394 372.574 27.1597 377.009 27.4556 381.18 27.6508 383.932 28.405 385.734 30.1355 387.584 33.2151 390.876 38.1735 391.712 45.738 390.214ZM303.438 211.668C306.032 204.895 308.11 199.312 308.056 199.261 307.73 198.951 304.309 197.734 304.217 197.895 303.664 198.859 294.703 222.763 294.793 223.033 294.989 223.619 298.009 224.686 298.395 224.305 298.575 224.128 300.845 218.441 303.438 211.668ZM261.995 202.006C268.87 201.02 273.288 198.584 275.006 194.834 275.917 192.845 275.895 188.895 274.96 186.5 271.732 178.233 258.859 167.071 238.286 154.698 232.503 151.22 223.528 146.164 223.138 146.164 222.925 146.164 219.974 151.418 219.523 152.6 219.382 152.969 220.337 153.623 223.942 155.627 245.553 167.636 261.025 179.121 266.062 186.892 268.917 191.296 268.359 192.495 262.867 193.76 260.036 194.413 250.846 194.495 245.558 193.915 223.448 191.489 189.428 182.352 157.733 170.325 155.589 169.512 153.805 168.881 153.769 168.923 153.532 169.204 151.005 176.218 151.105 176.317 151.429 176.641 166.415 182.027 174.867 184.857 203.567 194.469 228.974 200.508 247.449 202.111 250.165 202.347 260.121 202.275 261.995 202.006ZM117.413 168.382C128.613 167.642 137.824 166.995 137.882 166.943 137.94 166.892 134.686 163.014 130.651 158.326 126.616 153.637 120.154 146.12 116.291 141.621 112.428 137.122 109.243 133.458 109.214 133.48 109.185 133.502 111.082 137.654 111.86 143.042 113.502 154.411 105.989 150.512 74.6492 133.065 62.1787 126.123 50.8051 118.623 43.5282 113.237 29.4723 102.835 25.0022 92.8708 47.6728 93.4565 58.8267 93.7447 78.8304 98.8958 92.6413 102.702 94.697 103.268 96.4186 103.69 96.4671 103.639 96.6143 103.484 98.5729 96.2801 98.4941 96.1834 98.3473 96.0033 87.7864 93.2326 82.3064 91.9364 64.674 87.7657 53.3569 86.1161 42.3583 86.1132 36.3241 86.1116 34.9957 86.1948 32.5708 86.7266 27.4386 87.8519 23.8211 90.2269 22.3428 93.4416 21.4933 95.289 21.4524 99.1062 22.2594 101.219 26.5327 112.406 47.6367 128.089 83.2311 146.53 89.0112 149.524 101.324 155.453 107.591 158.258 109.709 159.207 111.443 160.058 111.445 160.151 111.447 160.243 107.751 162.327 103.231 164.783 93.1153 170.277 93.372 170.109 95.4492 169.893 96.3293 169.802 106.213 169.122 117.413 168.382ZM364.983 53.5826C369.906 40.7426 374.067 29.9778 374.229 29.6608 374.474 29.1816 374.661 29.5675 375.338 31.9522 376.214 35.0345 376.467 35.5759 376.467 34.3657 376.467 33.9431 376.8 29.2571 377.206 23.9525 377.612 18.6478 377.905 14.2686 377.857 14.2209 377.81 14.1732 374.93 17.8171 371.458 22.3186 367.986 26.82 365.191 30.5481 365.246 30.6033 365.301 30.6584 366.474 29.976 367.852 29.0868 369.231 28.1976 370.358 27.5551 370.358 27.659 370.358 27.763 366.31 38.4001 361.361 51.2971 356.412 64.1941 352.321 74.9195 352.27 75.1312 352.623 76.8314 354.381 76.9409 355.85 76.9075 355.95 76.9188 360.06 66.4226 364.983 53.5826Z" id="path5" fill="#FEFEFE" display="none"/><g id="g9" transform="translate(4.05498e-07 -0.29487)"><path d="M153.907 295.671C154.103 295.664 154.384 295.766 154.53 295.898 154.676 296.029 154.515 296.035 154.173 295.91 153.83 295.785 153.71 295.678 153.907 295.671ZM163.382 299.119C163.578 299.112 163.859 299.215 164.005 299.346 164.151 299.478 163.991 299.483 163.648 299.359 163.305 299.234 163.185 299.126 163.382 299.119ZM145.346 291.454C124.779 278.102 112.93 255.395 113.848 231.09 113.984 227.496 114.65 222.15 115.107 220.991 115.308 220.483 115.296 220.973 115.078 222.242 113.206 233.128 114.221 245.528 117.848 256.078 118.973 259.35 121.992 265.824 123.775 268.789 129.49 278.289 137.996 286.747 147.538 292.415 149.028 293.299 149.419 293.609 148.744 293.368 148.195 293.171 146.666 292.31 145.346 291.454ZM170.53 300.892C181.416 302.765 193.816 301.749 204.366 298.122 207.638 296.997 214.112 293.978 217.077 292.195 226.54 286.503 235.131 277.864 240.707 268.434 241.425 267.22 241.89 266.597 241.74 267.049 241.366 268.176 239.045 271.82 236.741 274.897 223.404 292.709 201.788 302.968 179.378 302.122 175.784 301.986 170.438 301.32 169.279 300.863 168.771 300.662 169.261 300.674 170.53 300.892ZM128.803 274.312C126.201 270.765 124.056 264.956 123.566 260.131 123.417 258.665 123.389 255.843 123.503 253.859 123.794 248.827 123.692 248.015 122.34 244.563 121.088 241.368 120.862 240.278 120.829 237.281 120.801 234.715 120.674 233.862 120.014 231.805 119.149 229.106 119.199 228.629 120.464 227.582 121.449 226.766 121.503 226.666 121.34 225.969 121.123 225.047 121.357 224.392 122.402 222.999 122.851 222.401 123.434 221.319 123.697 220.595 124.139 219.383 124.121 219.12 123.469 217.239 123.081 216.117 122.668 214.127 122.552 212.817 122.409 211.214 122.135 210.115 121.713 209.456 121.361 208.908 121.13 208.138 121.188 207.707 121.329 206.653 120.946 206.026 120.304 206.256 120.036 206.352 119.832 206.388 119.851 206.337 120.283 205.17 123.425 199.178 124.492 197.488 130.438 188.073 137.841 181.004 148.473 174.592 160.73 167.2 176.064 164.132 191.012 166.082 192.735 166.307 194.52 166.639 194.979 166.821 195.452 167.008 194.716 166.971 193.281 166.737 180.35 164.621 166.765 166.337 154.705 171.609 149.281 173.98 149.423 174.693 154.954 172.854 158.819 171.57 159.757 171.468 160.141 172.291 160.349 172.737 160.246 172.85 159.248 173.265 157.859 173.844 153.411 174.999 151.139 175.372 150.213 175.523 149.162 175.802 148.805 175.991 148.215 176.303 148.168 176.406 148.286 177.13 148.372 177.654 148.712 178.119 149.285 178.495 150.061 179.005 150.113 179.125 149.774 179.624 149.282 180.352 149.254 181.213 149.718 181.382 149.919 181.455 150.465 181.114 150.93 180.623 151.407 180.121 152.734 179.314 153.969 178.777 155.175 178.253 156.319 177.619 156.512 177.368 156.705 177.118 157.385 176.849 158.023 176.77 158.662 176.692 159.216 176.542 159.253 176.438 159.291 176.334 159.887 175.975 160.577 175.641 162.019 174.943 162.843 175.17 162.722 176.232 162.638 176.968 163.018 177.183 164.883 177.456L165.889 177.604 165.522 178.611C165.234 179.402 165.256 179.78 165.624 180.374 165.882 180.79 166.246 181.186 166.434 181.254 166.621 181.322 166.734 181.487 166.685 181.621 166.556 181.977 163.488 182.942 161.86 183.138 161.088 183.231 160.286 183.454 160.077 183.634 159.744 183.921 159.561 183.869 158.54 183.193 156.661 181.95 154.974 181.989 154.502 183.285 154.28 183.895 154.767 184.336 155.245 183.959 155.659 183.632 156.088 183.952 156.137 184.622 156.163 184.986 156.5 185.477 156.919 185.762 157.323 186.038 157.621 186.343 157.581 186.44 157.309 187.095 154.835 187.76 153.913 187.426 153.53 187.287 153.406 187.074 153.522 186.754 153.616 186.497 153.579 186.092 153.44 185.854 152.88 184.897 150.778 185.512 148.809 187.208 146.963 188.798 145.941 189.262 143.939 189.422 141.635 189.605 141.215 189.88 140.691 191.544 140.294 192.809 140.2 192.913 139.144 193.267 138.526 193.474 137.401 194.133 136.644 194.73 135.233 195.844 134.956 195.907 132.329 195.716 131.313 195.641 130.749 195.774 130.168 196.223 129.691 196.592 129.169 196.758 128.841 196.645 128.407 196.496 128.01 196.774 126.847 198.038 125.519 199.482 123.115 202.774 122.109 204.526 121.065 206.343 122.721 206.67 124.19 204.937 126.154 202.62 126.542 202.99 125.221 205.918 124.216 208.144 124.196 208.245 124.544 209.199 124.801 209.9 124.797 210.613 124.533 211.675 124.068 213.546 123.923 215.119 124.186 215.451 124.649 216.038 126.729 216.167 128.045 215.691 129.8 215.057 130.395 215.146 131.938 216.276 134.263 217.978 135.009 218.93 135.721 221.1 136.486 223.434 136.824 223.859 139.128 225.387 140.095 226.028 141.005 226.858 141.297 227.366 142.311 229.127 141.346 232.182 139.709 232.393 139.199 232.458 138.774 232.705 138.668 232.996 138.458 233.574 138.524 233.611 139.791 233.613 140.633 233.615 140.774 233.685 140.915 234.173 141.044 234.617 141.296 234.772 142.16 234.939 143.451 235.188 144.428 235.996 144.667 237.014 144.815 237.644 145.102 237.852 147.033 238.731 149.125 239.683 149.235 239.772 149.338 240.569 149.402 241.065 150.01 242.085 150.831 243.073 152.777 245.417 152.757 245.769 150.559 247.848 148.28 250.003 147.302 251.384 145.788 254.587 144.422 257.476 143.261 258.897 142.157 259.03 141.765 259.078 140.71 259.117 139.811 259.118 138.913 259.118 137.934 259.305 137.636 259.533 137.338 259.761 136.258 261.129 135.237 262.574 133.499 265.031 133.336 265.19 132.693 265.037 132.096 264.894 131.98 264.977 131.798 265.677 131.614 266.388 131.496 266.467 130.787 266.358 127.552 265.864 127.075 271.917 130.091 275.191 130.424 275.552 130.676 275.9 130.653 275.965 130.525 276.315 129.792 275.66 128.803 274.312ZM194.163 288.555C194.123 288.269 194.197 285.024 194.328 281.344 194.549 275.132 194.622 274.502 195.34 272.535 196.028 270.649 196.346 270.144 198.232 267.94 200.794 264.946 201.754 262.825 201.483 260.758 201.333 259.62 200.599 257.979 200.041 257.536 199.872 257.402 199.947 257.175 200.291 256.777 200.696 256.308 200.719 256.12 200.424 255.701 200.108 255.254 200.142 255.076 200.721 254.186 201.538 252.928 201.684 251.917 201.228 250.669 200.925 249.839 200.7 249.636 199.665 249.26 197.993 248.651 197.35 248.031 197.449 247.122 197.568 246.042 197.34 245.848 195.321 245.308 192.712 244.611 190.359 244.305 187.685 244.316 183.745 244.333 182.803 243.667 181.003 239.601 179.706 236.671 179.145 234.61 179.056 232.447 178.975 230.487 179.423 229.191 180.805 227.384 182.151 225.624 182.341 225.101 182.314 223.23 182.297 222.009 182.404 221.563 182.877 220.889 184.192 219.016 187.962 216.681 191.261 215.695 193.114 215.141 193.526 214.904 194.098 214.061 195.322 212.254 197.304 211.55 200.133 211.917 202.942 212.281 213.305 214.904 213.543 215.311 213.669 215.526 213.744 216.175 213.71 216.753 213.622 218.281 214.376 219.633 215.678 220.281 216.523 220.7 216.866 221.08 217.297 222.072 217.882 223.421 219.242 224.953 220.331 225.492 220.946 225.796 221.061 225.737 221.721 224.778 222.821 223.182 222.935 223.155 223.583 224.337 224.333 225.707 225.311 226.399 228.286 227.665 229.631 228.238 231.21 229.073 231.794 229.522 232.379 229.97 232.945 230.296 233.053 230.245 233.306 230.128 234.071 226.304 234.048 225.273 234.03 224.444 233.823 224.262 231.764 223.274 230.38 222.609 229.165 221.373 229.362 220.831 229.588 220.21 231.656 220.451 234.639 221.446 236.23 221.977 237.607 222.314 237.7 222.197 237.793 222.08 237.681 221.301 237.45 220.467 237.219 219.632 236.936 218.13 236.82 217.129 236.561 214.891 236.36 214.603 235.657 215.464 235.357 215.832 235.059 216.114 234.995 216.091 234.931 216.068 234.718 215.609 234.521 215.072 234.037 213.747 232.552 213.145 231.574 213.875 230.967 214.329 230.93 214.431 231.021 215.378 231.074 215.937 231.043 216.602 230.95 216.856 230.641 217.706 229.576 218.099 228.338 217.819 226.906 217.495 226.173 217.568 225.997 218.05 225.817 218.547 225.409 218.359 225.307 217.732 225.239 217.308 225.101 217.23 224.507 217.276 223.857 217.328 223.727 217.193 223.11 215.837 222.343 214.153 222.127 213.995 221.23 214.47 220.882 214.654 220.501 214.769 220.384 214.726 220.266 214.684 219.37 213.341 218.392 211.742 217.414 210.143 216.35 208.549 216.028 208.199 215.168 207.266 213.159 206.622 211.559 206.767 209.793 206.927 206.296 208.426 205.295 209.452 204.525 210.243 204.47 210.251 202.267 209.898 200.717 209.65 199.805 209.381 199.318 209.026 197.955 208.036 197.499 206.353 198.126 204.63 198.444 203.758 199.23 203.051 200.319 202.543 202.03 201.745 202.276 202.298 204.327 203.643 205.659 204.517 206.109 204.712 206.485 204.577 207.467 204.226 207.668 201.919 206.855 200.335 206.588 199.815 206.53 199.406 206.713 199.328 206.883 199.257 209.88 198.937 213.375 198.617 218.994 198.103 219.753 197.968 219.941 197.451 220.229 196.66 219.462 195.7 217.978 194.992 216.523 194.298 216.144 193.392 216.928 192.484 217.553 191.761 218.317 191.602 221.227 191.591 222.549 191.586 224.142 191.572 224.767 191.56 226.283 191.532 228.842 192.478 230.491 193.678 231.863 194.676 235.341 198.19 235.708 198.948 235.866 199.277 235.782 199.529 235.33 200.083 234.577 201.007 234.761 201.399 235.99 201.484 238.416 201.654 240.262 202.797 242.106 205.269 243.425 207.04 244.198 207.612 244.425 206.988 244.572 206.585 242.378 202.104 240.435 198.838 234.854 189.456 225.871 180.576 216.344 175.021 215.231 174.373 214.848 174.067 215.366 174.24 216.547 174.634 221.071 177.56 223.912 179.766 234.352 187.876 241.887 198.272 246.109 210.395 250.872 224.066 251.536 237.626 248.073 250.501 247.56 252.411 246.796 254.801 246.375 255.813L245.61 257.652 246.02 255.542C246.726 251.904 247.181 247.647 247.045 245.936 246.892 244.007 246.094 242.06 244.955 240.833 244.508 240.352 243.753 239.326 243.277 238.552 241.975 236.437 240.092 235.962 239.496 237.598 239.107 238.669 239.586 239.597 241.319 241.124 242.964 242.574 243.426 243.424 243.451 245.047 243.494 247.791 241.798 249.412 238.554 249.729 237.395 249.842 236.062 250.131 235.593 250.372L234.739 250.81 234.222 245.69C233.652 240.059 232.607 232.846 232.304 232.462 231.887 231.934 231.163 232.562 230.689 233.865 230.294 234.952 230.276 235.721 230.587 238.414 230.792 240.197 230.861 241.926 230.741 242.258 230.009 244.268 230.484 247.097 232.484 252.656 233.001 254.092 234.258 255.27 235.321 255.315 235.697 255.33 235.821 255.454 235.725 255.717 235.537 256.234 220.14 273.522 218.04 275.573 217.114 276.478 215.463 277.905 214.372 278.744 212.862 279.905 212.303 280.502 212.035 281.24 211.558 282.548 210.43 283.606 209.363 283.744 208.653 283.835 208.483 283.973 208.47 284.465 208.422 286.333 207.521 287.033 205.33 286.904 203.458 286.794 202.254 287.056 199.485 288.178 196.034 289.575 194.323 289.696 194.163 288.555ZM244.091 230.249C244.236 229.977 244.233 229.548 244.085 229.294 243.747 228.716 243.932 228.179 244.574 227.88 245.543 227.428 245.065 225.841 243.483 224.253 242.452 223.219 242.447 223.201 242.945 222.325 243.293 221.712 243.423 221.08 243.369 220.262 243.299 219.216 243.202 219.061 242.508 218.883 240.683 218.415 239.886 220.882 241.035 223.443 241.592 224.684 241.631 225.088 241.323 226.437 241.018 227.776 241.053 228.161 241.571 229.156 242.039 230.056 242.36 230.364 243.001 230.529 243.609 230.686 243.896 230.612 244.09 230.249ZM217.375 284.604C216.851 284.132 217.595 283.024 219.085 282.053 220.428 281.178 220.611 280.957 220.971 279.782 221.355 278.526 221.405 278.476 222.385 278.363 223.907 278.189 225.007 277.574 225.557 276.591 226.236 275.379 226.689 275.503 226.867 276.951L227.018 278.173 225.783 278.827C224.366 279.577 224.256 279.725 222.794 282.798 221.828 284.829 221.617 285.111 220.839 285.405 220.185 285.652 219.679 285.624 218.805 285.289 218.165 285.043 217.522 284.735 217.375 284.604ZM242.813 264.235C242.931 263.949 243.011 263.911 243.018 264.139 243.025 264.345 242.938 264.557 242.825 264.61 242.712 264.663 242.706 264.494 242.813 264.235ZM116.521 215.609C116.645 215.266 116.753 215.147 116.76 215.343 116.767 215.54 116.665 215.82 116.533 215.967 116.401 216.113 116.396 215.952 116.521 215.609ZM244.027 261.735C244.152 261.393 244.26 261.273 244.266 261.47 244.273 261.666 244.171 261.947 244.04 262.093 243.908 262.239 243.902 262.078 244.027 261.735ZM160.879 185.161C160.64 184.845 160.753 184.725 161.568 184.431 162.361 184.144 162.769 184.173 163.749 184.585 164.412 184.864 164.95 185.225 164.945 185.387 164.931 185.813 162.716 186.114 161.877 185.803 161.485 185.658 161.036 185.369 160.879 185.161ZM165.863 175.028C165.379 174.307 165.922 173.652 167.09 173.546 167.792 173.482 168.313 173.212 168.752 172.686 169.503 171.787 170.774 171.69 171.859 172.45 172.366 172.805 172.493 173.096 172.369 173.62 172.229 174.215 172.112 174.284 171.574 174.088 170.902 173.844 170.204 174.281 169.891 175.142 169.663 175.768 168.82 175.91 167.715 175.508 167.253 175.34 166.722 175.274 166.534 175.361 166.306 175.468 166.084 175.357 165.863 175.028ZM179.649 178.798C179.363 178.632 179.008 178.124 178.859 177.671 178.376 176.201 179.173 175.122 180.709 175.169 181.225 175.184 182.017 175.011 182.468 174.783 183.22 174.403 183.275 174.31 183.127 173.668 183.038 173.283 182.874 172.52 182.763 171.974 182.567 171.014 182.513 170.968 181.204 170.631 180.458 170.439 179.876 170.206 179.91 170.113 180 169.866 183.294 169.214 184.629 169.18 185.257 169.163 186.656 169.334 187.738 169.559 189.553 169.937 203.58 174.431 207.768 175.976 209.393 176.576 209.52 176.665 208.983 176.83 207.652 177.24 203.802 177.581 202.749 177.382 201.451 177.137 201.056 177.646 201.615 178.844 202.108 179.902 201.542 179.903 198.614 178.851 195.462 177.717 194.209 177.566 192.031 178.057 190.778 178.34 189.929 178.35 189.006 178.095 186.869 177.502 186.519 177.524 184.564 178.369 182.081 179.443 180.924 179.544 179.649 178.799ZM196.51 182.692C196.719 182.118 200.382 182.274 200.504 182.861 200.623 183.437 199.305 183.654 197.873 183.294 197.021 183.08 196.459 182.832 196.51 182.692ZM200.3 168.255C200.506 168.248 200.718 168.336 200.77 168.449 200.823 168.562 200.654 168.567 200.395 168.461 200.109 168.343 200.072 168.263 200.3 168.255ZM209.757 171.704C209.954 171.697 210.234 171.799 210.381 171.931 210.527 172.062 210.366 172.068 210.023 171.943 209.68 171.818 209.561 171.71 209.757 171.704Z" id="path11" fill="#E7EDF2"/><path d="M155.157 296.114C155.488 296.167 155.992 296.35 156.279 296.522 156.566 296.694 156.296 296.651 155.679 296.426 155.062 296.201 154.827 296.061 155.157 296.114ZM161.64 298.473C161.971 298.526 162.475 298.71 162.762 298.882 163.049 299.053 162.779 299.01 162.162 298.786 161.545 298.561 161.31 298.42 161.64 298.473ZM151.193 294.399C140.073 288.732 130.254 279.561 123.775 268.789 121.992 265.824 118.973 259.35 117.848 256.078 114.672 246.841 113.474 236.087 114.533 226.322 114.879 223.128 116.053 217.175 116.365 217.029 116.56 216.938 116.482 217.451 115.743 221.115 113.083 234.304 114.733 248.608 120.398 261.461 122.219 265.592 125.284 270.829 127.353 273.345 127.507 273.533 127.062 272.539 126.364 271.136 123.668 265.723 122.63 260.2 123.037 253.437 123.328 248.603 123.262 248.105 121.869 244.664 120.642 241.634 120.406 240.437 120.339 236.892 120.297 234.665 120.023 233.136 119.214 230.596 118.738 229.104 119.071 227.951 120.175 227.266 120.937 226.793 120.947 226.769 120.8 225.768 120.658 224.793 120.695 224.688 121.664 223.301 122.22 222.503 122.907 221.214 123.191 220.436 123.673 219.111 123.663 218.914 123.037 217.32 122.669 216.385 122.247 214.397 122.099 212.902 121.912 211.007 121.672 210.028 121.307 209.67 121.007 209.375 120.748 208.622 120.7 207.904 120.596 206.364 120.257 206.187 119.681 207.37L119.242 208.27 119.53 207.35C120.069 205.622 121.427 205.914 121.188 207.707 121.13 208.138 121.361 208.908 121.713 209.456 122.135 210.115 122.409 211.214 122.552 212.817 122.668 214.127 123.081 216.117 123.469 217.239 124.121 219.12 124.139 219.383 123.697 220.595 123.434 221.319 122.851 222.401 122.402 222.999 121.357 224.392 121.123 225.047 121.34 225.969 121.503 226.666 121.449 226.766 120.464 227.582 119.199 228.629 119.149 229.106 120.014 231.805 120.674 233.862 120.801 234.715 120.829 237.281 120.862 240.278 121.088 241.368 122.34 244.563 123.69 248.008 123.792 248.819 123.51 253.842 123.194 259.482 123.58 262.502 125.237 267.353 126.479 270.987 129.47 275.929 130.442 275.951 130.639 275.956 130.506 275.644 130.141 275.247 127.75 272.644 127.308 268.235 129.29 266.754 129.688 266.457 130.327 266.288 130.787 266.358 131.496 266.467 131.614 266.388 131.798 265.677 131.98 264.977 132.096 264.894 132.693 265.037 133.336 265.19 133.499 265.032 135.237 262.574 136.258 261.129 137.338 259.761 137.636 259.533 137.934 259.305 138.913 259.118 139.811 259.118 140.71 259.117 141.765 259.077 142.157 259.03 143.261 258.897 144.422 257.476 145.788 254.587 147.302 251.384 148.28 250.003 150.559 247.848 152.757 245.769 152.777 245.417 150.831 243.073 150.01 242.085 149.402 241.065 149.338 240.569 149.235 239.772 149.125 239.683 147.033 238.731 145.102 237.852 144.815 237.644 144.667 237.014 144.428 235.996 143.451 235.188 142.16 234.939 141.296 234.772 141.044 234.617 140.915 234.173 140.774 233.685 140.633 233.615 139.791 233.613 138.524 233.61 138.457 233.574 138.668 232.996 138.774 232.705 139.199 232.458 139.709 232.393 141.346 232.182 142.311 229.127 141.297 227.366 141.005 226.858 140.095 226.028 139.128 225.387 136.824 223.859 136.486 223.434 135.721 221.1 135.009 218.93 134.263 217.978 131.938 216.276 130.394 215.146 129.8 215.057 128.045 215.691 126.729 216.167 124.649 216.038 124.186 215.451 123.923 215.119 124.068 213.546 124.533 211.675 124.797 210.613 124.801 209.9 124.544 209.199 124.196 208.245 124.216 208.144 125.221 205.918 126.542 202.99 126.154 202.62 124.19 204.937 122.721 206.67 121.065 206.343 122.109 204.526 123.115 202.774 125.519 199.482 126.847 198.038 128.01 196.774 128.407 196.496 128.841 196.645 129.169 196.758 129.691 196.592 130.168 196.223 130.749 195.774 131.313 195.641 132.329 195.715 134.956 195.907 135.233 195.844 136.644 194.73 137.401 194.133 138.526 193.474 139.144 193.267 140.2 192.913 140.294 192.809 140.691 191.544 141.215 189.88 141.635 189.605 143.939 189.422 145.941 189.262 146.963 188.798 148.809 187.208 150.778 185.512 152.88 184.897 153.44 185.854 153.579 186.092 153.616 186.497 153.522 186.754 153.406 187.074 153.53 187.287 153.913 187.426 154.835 187.76 157.309 187.095 157.581 186.44 157.621 186.343 157.323 186.038 156.919 185.762 156.5 185.477 156.163 184.986 156.137 184.622 156.088 183.951 155.659 183.632 155.245 183.959 154.767 184.336 154.28 183.895 154.502 183.285 154.974 181.989 156.661 181.95 158.54 183.193 159.561 183.869 159.744 183.921 160.077 183.634 160.286 183.454 161.088 183.231 161.86 183.138 163.488 182.942 166.556 181.977 166.685 181.621 166.734 181.487 166.621 181.322 166.434 181.254 166.246 181.186 165.882 180.79 165.624 180.374 165.256 179.78 165.234 179.402 165.522 178.611L165.888 177.604 164.883 177.456C163.018 177.183 162.638 176.968 162.722 176.232 162.843 175.17 162.019 174.943 160.577 175.641 159.887 175.975 159.291 176.334 159.253 176.438 159.216 176.542 158.662 176.692 158.023 176.77 157.385 176.849 156.705 177.118 156.512 177.368 156.319 177.619 155.175 178.253 153.969 178.777 152.734 179.314 151.407 180.121 150.93 180.623 150.465 181.114 149.919 181.455 149.718 181.382 149.254 181.213 149.282 180.351 149.774 179.624 150.113 179.125 150.061 179.005 149.285 178.495 148.712 178.119 148.372 177.654 148.286 177.13 148.168 176.406 148.215 176.303 148.805 175.991 149.162 175.802 150.213 175.523 151.139 175.371 153.411 174.999 157.859 173.844 159.248 173.265 160.246 172.85 160.349 172.737 160.141 172.291 159.757 171.468 158.819 171.57 154.954 172.854 149.423 174.693 149.281 173.98 154.705 171.609 168.242 165.692 184.142 164.243 197.735 167.69 200.212 168.318 198.206 168.145 194.377 167.4 181.539 164.904 167.787 166.421 155.399 171.7 154.242 172.193 153.327 172.667 153.367 172.753 153.407 172.839 154.428 172.573 155.637 172.163 158.637 171.145 159.694 171.034 160.341 171.669 160.725 172.047 160.768 172.319 160.522 172.808 160.139 173.572 156.374 174.827 151.86 175.696 150.297 175.997 148.921 176.403 148.804 176.597 148.462 177.164 149.034 178.027 149.982 178.372L150.859 178.691 150.327 179.627C149.658 180.806 150.008 180.97 150.996 179.941 151.41 179.509 152.646 178.806 153.742 178.378 154.838 177.95 156.035 177.274 156.402 176.876 156.847 176.393 157.236 176.212 157.569 176.333 157.858 176.438 158.642 176.178 159.431 175.716 161.725 174.374 163.358 174.508 163.201 176.025 163.136 176.652 163.221 176.74 163.989 176.848 166.736 177.235 166.688 177.209 166.209 178.093 165.6 179.215 165.674 180.081 166.421 180.574 167.998 181.616 167.591 182.198 164.752 182.967 163.708 183.249 162.996 183.556 163.17 183.648 163.344 183.741 164 184.083 164.628 184.41 166.512 185.392 166.065 186.108 163.403 186.372 161.92 186.52 161.038 186.208 160.497 185.346 159.912 184.415 157.166 182.777 156.171 182.766 155.75 182.761 155.292 182.947 155.154 183.178 154.936 183.542 154.989 183.586 155.548 183.506 156.37 183.388 156.855 183.804 156.627 184.43 156.505 184.766 156.659 185.049 157.122 185.343 158.191 186.021 158.282 186.636 157.402 187.228 156.478 187.85 154.229 188.15 153.439 187.758 152.986 187.532 152.883 187.288 153.012 186.746 153.106 186.353 153.05 185.984 152.887 185.925 152.254 185.697 150.712 186.238 149.753 187.024 147.027 189.259 146.38 189.607 144.573 189.81 141.826 190.119 141.407 190.361 141.093 191.818 140.834 193.016 140.801 193.049 139.007 193.913 138.004 194.396 136.712 195.144 136.136 195.574 135.329 196.177 134.817 196.335 133.91 196.26 130.999 196.02 130.896 196.034 130.222 196.766 129.731 197.298 129.407 197.427 128.964 197.266 128.458 197.082 128.152 197.283 126.958 198.583 125.621 200.038 123.724 202.675 122.594 204.648 122.199 205.338 122.164 205.551 122.445 205.56 122.818 205.571 123.269 205.204 124.603 203.807 125.346 203.028 126.209 202.831 126.617 203.348 126.822 203.608 125.726 206.259 124.894 207.515 124.697 207.812 124.735 208.424 125 209.216 125.273 210.033 125.311 210.732 125.112 211.278 124.625 212.617 124.405 214.835 124.732 215.119 125.328 215.637 126.891 215.676 128.192 215.205 129.977 214.56 130.349 214.612 131.99 215.741 134.544 217.499 135.734 219.146 136.442 221.91 136.716 222.98 137.614 223.896 139.571 225.103 142.295 226.782 142.761 228.217 141.543 231.168 140.594 233.467 140.782 234.101 142.526 234.483 143.718 234.745 144.739 235.661 145.024 236.726 145.163 237.244 145.543 237.523 146.988 238.166 149.549 239.306 149.757 239.469 149.796 240.363 149.818 240.858 150.262 241.688 150.952 242.523 151.569 243.269 152.243 244.199 152.45 244.59 152.977 245.584 152.472 246.791 151.008 248.035 149.12 249.638 147.776 251.52 146.324 254.595 144.307 258.865 143.104 259.843 140.232 259.547 139.544 259.477 138.666 259.578 138.282 259.772 137.884 259.973 136.754 261.285 135.659 262.814 134.135 264.945 133.605 265.512 133.107 265.547 132.7 265.575 132.356 265.847 132.129 266.32 131.845 266.914 131.648 267.018 131.071 266.88 130.024 266.63 128.868 267.443 128.612 268.609 128.137 270.766 128.998 273.482 130.672 275.114 131.673 276.09 131.501 276.748 130.298 276.542 129.546 276.412 129.594 276.508 131.211 278.351 136.439 284.311 142.688 289.338 149.329 292.926 150.821 293.733 152.233 294.567 152.466 294.78L152.89 295.167 152.399 294.965C152.128 294.854 151.586 294.599 151.193 294.399ZM163.763 185.874C164.408 185.768 164.94 185.549 164.945 185.387 164.95 185.225 164.412 184.864 163.749 184.585 162.769 184.173 162.361 184.144 161.568 184.431 160.753 184.725 160.64 184.845 160.879 185.161 161.353 185.789 162.522 186.078 163.763 185.874ZM161.457 183.96C161.592 183.854 161.59 183.726 161.453 183.676 161.316 183.627 161.094 183.672 160.959 183.779 160.824 183.885 160.826 184.013 160.963 184.063 161.1 184.113 161.322 184.067 161.457 183.96ZM165.551 299.559C165.799 299.518 166.76 299.673 167.686 299.902 168.612 300.131 170.787 300.521 172.518 300.768 199.725 304.655 226.473 291.787 240.398 268.113 241.406 266.4 242.362 264.641 242.523 264.205 242.684 263.769 242.989 263.285 243.199 263.128 243.656 262.79 242.78 264.682 241.017 267.84 235.826 277.14 226.742 286.382 217.077 292.195 214.112 293.978 207.638 296.997 204.366 298.122 193.015 302.025 179.501 302.891 168.397 300.429 165.013 299.679 164.945 299.658 165.551 299.559ZM193.711 289.096C193.496 288.471 194.121 275.265 194.449 273.481 194.774 271.711 195.819 270.01 198.489 266.904 201.138 263.821 201.745 260.672 200.126 258.415 199.554 257.618 199.46 257.265 199.698 256.801 199.887 256.431 199.874 256.059 199.665 255.817 199.366 255.469 199.413 255.3 200.107 254.252 200.534 253.606 200.95 252.677 201.031 252.188 201.252 250.847 200.763 250.183 198.937 249.348 197.611 248.74 197.299 248.484 197.08 247.818 196.935 247.378 196.879 246.849 196.954 246.643 197.069 246.327 196.778 246.185 195.094 245.738 192.418 245.028 191.237 244.875 187.601 244.769 184.044 244.665 183.372 244.392 181.95 242.469 180.897 241.044 179.33 236.982 178.8 234.3 178.597 233.277 178.53 231.758 178.649 230.923 178.843 229.572 179.022 229.178 180.29 227.314 181.566 225.436 181.719 225.099 181.769 224.04 181.801 223.391 181.98 222.28 182.168 221.572 182.472 220.428 182.681 220.148 184.046 219.054 186.079 217.425 188.464 216.148 191.184 215.234 192.608 214.755 193.475 214.305 193.592 213.985 194.094 212.604 196.806 211.275 198.958 211.354 200.415 211.408 201.996 211.729 208.886 213.369 211.995 214.109 213.382 214.538 213.655 214.842 213.867 215.079 214.087 215.971 214.145 216.824 214.266 218.622 214.772 219.43 216.19 220.086 217.025 220.473 217.292 220.79 217.702 221.885 218.039 222.781 218.591 223.548 219.396 224.236 220.731 225.377 221.055 225.423 221.384 224.519 221.687 223.686 222.819 222.672 223.265 222.835 223.462 222.906 223.664 223.246 223.713 223.589 223.877 224.735 225.455 225.928 228.684 227.348 230.326 228.071 231.868 228.884 232.112 229.156 232.355 229.428 232.631 229.614 232.724 229.571 232.818 229.527 233.07 228.571 233.286 227.447 233.785 224.839 233.569 224.326 231.683 223.639 230.196 223.098 228.623 221.591 228.607 220.693 228.59 219.674 231.42 219.802 234.746 220.971 236.019 221.419 237.09 221.704 237.127 221.606 237.163 221.508 237.004 220.605 236.774 219.598 236.544 218.591 236.338 217.368 236.317 216.88 236.278 215.979 235.937 215.567 235.721 216.16 235.656 216.34 235.367 216.645 235.079 216.837 234.582 217.171 234.545 217.131 234.342 216.035 233.875 213.527 231.197 213.156 231.518 215.645 231.681 216.916 231.397 217.476 230.287 218.072 229.517 218.485 229.037 218.529 228.022 218.281 226.651 217.946 226.287 218.061 225.964 218.929 225.643 219.793 225.159 219.683 224.99 218.708 224.858 217.951 224.71 217.79 224.031 217.66 223.349 217.53 223.14 217.299 222.651 216.136L222.075 214.764 221.25 215.035C220.797 215.184 220.313 215.265 220.176 215.216 220.038 215.166 219.182 213.896 218.273 212.394 216.055 208.73 215.437 208.017 214.037 207.507 211.752 206.676 207.467 207.864 205.6 209.847L204.646 210.86 202.287 210.377C199.225 209.75 198.443 209.274 197.774 207.626 197.172 206.143 197.189 205.272 197.842 204.104 198.495 202.937 199.655 202.24 201.21 202.082 202.547 201.945 202.589 201.958 204.19 203.004 206.335 204.406 206.392 204.418 206.717 203.526 207.089 202.504 206.898 201.266 206.194 200.138 205.724 199.384 205.696 199.168 206.046 199.005 206.284 198.894 209.332 198.546 212.818 198.232 217.489 197.812 219.223 197.545 219.404 197.217 219.694 196.69 218.943 195.848 217.818 195.438 217.025 195.149 216.241 194.426 216.101 193.853 215.971 193.322 216.522 192.05 217.017 191.737 217.743 191.278 218.898 191.094 220.68 191.154 221.6 191.184 223.132 191.167 224.083 191.114 225.363 191.044 226.252 191.178 227.511 191.631 229.894 192.489 230.984 193.275 233.896 196.236L236.443 198.825 235.98 199.799 235.516 200.772 237.229 201.211C239.414 201.771 240.955 202.879 242.451 204.966 243.059 205.814 243.648 206.465 243.76 206.413 244.018 206.292 241.95 202.096 240.139 199.062 236.593 193.125 230.84 186.393 225.463 181.891 222.661 179.545 217.328 175.936 214.474 174.454 212.008 173.174 211.316 172.753 211.522 172.657 211.835 172.511 217.15 175.438 219.819 177.226 227.97 182.685 235.558 190.64 240.435 198.838 242.378 202.104 244.571 206.586 244.425 206.988 244.198 207.612 243.425 207.04 242.106 205.269 240.262 202.797 238.416 201.654 235.99 201.485 234.761 201.399 234.577 201.007 235.33 200.083 235.782 199.529 235.866 199.277 235.708 198.949 235.341 198.19 231.863 194.676 230.491 193.678 228.842 192.479 226.283 191.532 224.767 191.56 224.142 191.572 222.549 191.586 221.227 191.591 218.317 191.602 217.553 191.761 216.928 192.484 216.144 193.393 216.523 194.298 217.978 194.992 219.462 195.7 220.229 196.66 219.941 197.451 219.753 197.968 218.994 198.103 213.375 198.617 209.88 198.937 206.883 199.257 206.713 199.328 206.53 199.406 206.588 199.815 206.855 200.335 207.668 201.919 207.467 204.226 206.485 204.577 206.109 204.712 205.659 204.517 204.327 203.643 202.276 202.298 201.514 202.187 199.803 202.985 198.714 203.493 198.443 203.758 198.126 204.63 197.499 206.353 197.955 208.036 199.317 209.026 199.805 209.381 200.717 209.65 202.267 209.898 204.47 210.251 204.525 210.243 205.295 209.452 206.296 208.426 209.793 206.927 211.559 206.767 213.159 206.622 215.168 207.266 216.028 208.199 216.35 208.549 217.414 210.143 218.392 211.742 219.37 213.341 220.266 214.684 220.384 214.727 220.501 214.769 220.881 214.654 221.23 214.47 222.127 213.995 222.343 214.153 223.11 215.837 223.727 217.193 223.857 217.328 224.507 217.277 225.101 217.23 225.239 217.308 225.307 217.732 225.409 218.359 225.817 218.547 225.997 218.05 226.173 217.568 226.906 217.495 228.338 217.819 229.576 218.099 230.641 217.706 230.95 216.856 231.043 216.602 231.074 215.937 231.021 215.378 230.929 214.431 230.967 214.329 231.574 213.875 232.552 213.145 234.037 213.747 234.521 215.072 234.718 215.609 234.931 216.068 234.995 216.091 235.059 216.115 235.357 215.832 235.657 215.464 236.36 214.604 236.561 214.891 236.82 217.129 236.936 218.131 237.219 219.633 237.45 220.467 237.681 221.301 237.793 222.08 237.7 222.197 237.607 222.314 236.229 221.977 234.639 221.446 231.655 220.451 229.588 220.21 229.362 220.831 229.165 221.373 230.38 222.609 231.764 223.274 233.823 224.262 234.03 224.444 234.048 225.273 234.071 226.304 233.305 230.128 233.053 230.245 232.945 230.296 232.379 229.97 231.794 229.522 231.21 229.073 229.631 228.238 228.286 227.666 225.311 226.399 224.333 225.707 223.583 224.337 222.935 223.155 222.821 223.182 221.721 224.778 221.061 225.737 220.946 225.796 220.331 225.492 219.242 224.953 217.882 223.421 217.297 222.072 216.866 221.081 216.523 220.7 215.678 220.281 214.376 219.633 213.622 218.281 213.71 216.753 213.744 216.175 213.669 215.526 213.543 215.311 213.305 214.904 202.942 212.281 200.133 211.917 197.304 211.55 195.322 212.254 194.098 214.061 193.526 214.904 193.114 215.141 191.261 215.695 187.962 216.681 184.192 219.017 182.877 220.889 182.404 221.563 182.297 222.009 182.314 223.23 182.341 225.101 182.151 225.624 180.805 227.384 179.423 229.191 178.975 230.487 179.056 232.447 179.145 234.61 179.706 236.671 181.003 239.601 182.803 243.667 183.745 244.333 187.685 244.316 190.359 244.305 192.712 244.611 195.321 245.309 197.34 245.848 197.568 246.042 197.449 247.122 197.35 248.031 197.993 248.651 199.665 249.26 200.7 249.636 200.925 249.839 201.228 250.669 201.684 251.917 201.538 252.928 200.721 254.186 200.142 255.077 200.108 255.254 200.424 255.702 200.719 256.12 200.696 256.308 200.291 256.777 199.947 257.175 199.872 257.402 200.041 257.536 200.599 257.979 201.333 259.62 201.483 260.758 201.754 262.825 200.794 264.946 198.232 267.94 196.348 270.142 196.027 270.651 195.339 272.535 194.616 274.511 194.548 275.118 194.323 281.582 194.191 285.392 194.158 288.674 194.252 288.874 194.597 289.615 196.465 289.378 199.323 288.233 202.254 287.058 203.45 286.794 205.33 286.904 207.521 287.033 208.422 286.334 208.47 284.465 208.483 283.973 208.653 283.836 209.363 283.744 210.429 283.607 211.558 282.548 212.034 281.24 212.303 280.502 212.862 279.905 214.372 278.744 215.463 277.905 217.114 276.478 218.04 275.573 220.14 273.522 235.537 256.235 235.725 255.717 235.821 255.454 235.696 255.331 235.321 255.315 234.258 255.27 233.001 254.092 232.484 252.656 230.484 247.097 230.009 244.268 230.741 242.258 230.861 241.926 230.792 240.197 230.587 238.414 230.276 235.721 230.294 234.952 230.689 233.865 231.163 232.562 231.887 231.934 232.304 232.462 232.606 232.846 233.652 240.059 234.221 245.69L234.739 250.81 235.593 250.372C236.062 250.131 237.395 249.842 238.554 249.729 241.798 249.412 243.494 247.791 243.451 245.047 243.426 243.424 242.964 242.575 241.319 241.124 239.586 239.597 239.106 238.669 239.496 237.598 240.092 235.962 241.975 236.437 243.277 238.552 243.753 239.326 244.508 240.353 244.955 240.833 245.967 241.923 246.843 243.9 247.029 245.512 247.243 247.372 246.768 251.787 245.892 256.061 245.457 258.187 245.496 256.17 245.947 253.257 247.082 245.923 246.847 243.547 244.772 241.335 244.324 240.858 243.538 239.812 243.025 239.011 242.016 237.436 240.829 236.818 240.023 237.447 239.297 238.013 239.836 239.184 241.478 240.607 244.036 242.823 244.672 245.62 243.126 247.848 242.031 249.425 240.787 250.059 238.423 250.245 237.27 250.336 235.992 250.617 235.583 250.871 235.174 251.125 234.728 251.291 234.592 251.242 234.455 251.192 233.965 247.805 233.502 243.715 233.04 239.625 232.516 235.464 232.339 234.467L232.016 232.656 231.506 233.247C230.763 234.107 230.672 235.195 231.052 238.681 231.292 240.88 231.283 242.243 231.02 243.333 230.628 244.962 230.678 245.391 231.612 248.397 231.934 249.432 232.372 250.943 232.585 251.754 233.061 253.564 234.032 254.554 235.655 254.883 236.387 255.032 236.758 255.208 236.696 255.378 236.513 255.879 219.891 274.412 218.117 276.092 217.138 277.019 215.556 278.393 214.6 279.145 213.645 279.898 212.76 280.799 212.633 281.147 212.135 282.515 211.428 283.322 210.242 283.875 209.133 284.392 208.974 284.567 208.719 285.55 208.378 286.862 207.825 287.229 206.076 287.307 205.41 287.336 204.349 287.381 203.719 287.406 203.089 287.431 201.357 287.933 199.87 288.521 196.365 289.909 194.063 290.124 193.711 289.096ZM217.019 284.806C216.395 283.885 216.89 282.915 218.499 281.904 219.737 281.125 219.926 280.893 220.417 279.544L220.961 278.048 222.264 277.92C223.884 277.76 224.73 277.265 225.379 276.098 225.915 275.136 226.614 274.711 226.954 275.142 227.145 275.384 227.567 278.13 227.459 278.427 227.433 278.5 226.815 278.849 226.085 279.202 224.67 279.888 224.137 280.596 223.283 282.926 222.736 284.422 221.865 285.47 220.827 285.883 219.848 286.273 217.579 285.631 217.019 284.806ZM220.839 285.405C221.617 285.111 221.828 284.829 222.794 282.798 224.256 279.725 224.366 279.577 225.783 278.827L227.018 278.173 226.867 276.951C226.689 275.503 226.236 275.379 225.557 276.591 225.007 277.574 223.907 278.189 222.385 278.363 221.405 278.476 221.355 278.526 220.971 279.782 220.611 280.957 220.428 281.178 219.085 282.053 217.595 283.024 216.851 284.132 217.375 284.604 217.522 284.735 218.165 285.043 218.805 285.289 219.679 285.624 220.185 285.652 220.839 285.405ZM117.094 214.124C117.318 213.506 117.459 213.272 117.406 213.602 117.353 213.932 117.169 214.437 116.998 214.724 116.826 215.011 116.869 214.741 117.094 214.124ZM244.6 260.25C244.825 259.633 244.965 259.398 244.913 259.728 244.86 260.058 244.676 260.563 244.504 260.85 244.332 261.137 244.376 260.867 244.6 260.25ZM241.572 229.156C241.053 228.161 241.018 227.776 241.324 226.437 241.631 225.088 241.592 224.684 241.036 223.443 239.887 220.882 240.683 218.415 242.508 218.883 243.203 219.061 243.299 219.216 243.369 220.262 243.423 221.08 243.294 221.712 242.945 222.325 242.448 223.201 242.453 223.219 243.484 224.253 245.066 225.841 245.543 227.428 244.574 227.88 243.933 228.179 243.747 228.716 244.085 229.294 244.546 230.084 243.942 230.772 243.001 230.529 242.36 230.364 242.04 230.056 241.572 229.156ZM243.551 230.067C243.709 229.885 243.729 229.47 243.596 229.143 243.292 228.394 243.447 227.959 244.154 227.586 244.963 227.158 244.754 226.476 243.283 224.742L242.03 223.266 242.501 222.2C242.799 221.523 242.919 220.774 242.828 220.153 242.666 219.042 242.551 218.945 241.801 219.295 240.716 219.801 240.654 221.348 241.629 223.633 242.228 225.039 242.258 225.356 241.888 226.372 241.374 227.783 241.457 228.477 242.257 229.479 243.005 230.414 243.18 230.494 243.551 230.067ZM165.353 174.856C165.111 173.827 165.827 173.011 166.958 173.027 167.525 173.035 168.036 172.792 168.489 172.301 169.322 171.398 170.046 171.272 171.446 171.787 172.785 172.28 173.027 172.588 172.871 173.602 172.74 174.461 172.281 174.772 171.369 174.62 171.049 174.566 170.663 174.81 170.35 175.266 169.782 176.092 168.719 176.444 167.824 176.104 167.494 175.979 166.843 175.818 166.378 175.747 165.673 175.639 165.502 175.49 165.353 174.856ZM167.715 175.508C168.82 175.91 169.663 175.768 169.891 175.142 170.204 174.281 170.902 173.844 171.574 174.088 172.112 174.284 172.229 174.215 172.369 173.62 172.493 173.096 172.366 172.805 171.859 172.45 170.774 171.69 169.503 171.787 168.752 172.686 168.313 173.212 167.792 173.481 167.09 173.546 166.528 173.597 165.948 173.84 165.8 174.087 165.475 174.631 166.03 175.596 166.534 175.361 166.722 175.274 167.253 175.34 167.715 175.508ZM178.573 178.145C177.675 176.22 178.534 174.933 180.866 174.706 181.637 174.631 182.379 174.441 182.515 174.285 182.651 174.128 182.599 173.345 182.399 172.544 182.059 171.184 181.979 171.081 181.184 170.99 179.917 170.845 178.873 170.433 178.879 170.081 178.886 169.671 182.477 168.848 184.559 168.779 186.991 168.698 189.337 169.321 200.416 172.986 210.232 176.234 211.43 176.732 210.342 177.114 209.165 177.526 203.455 178.068 202.799 177.829 201.867 177.49 201.621 177.995 202.236 178.986 203.211 180.559 202.482 180.585 197.923 179.145L194.361 178.019 192.167 178.451C190.438 178.792 189.631 178.797 188.354 178.477 186.648 178.049 185.687 178.184 183.834 179.115 182.412 179.83 181.391 179.921 180.094 179.449 179.236 179.136 178.901 178.85 178.573 178.145ZM182.091 179.251C182.415 179.214 183.528 178.817 184.564 178.369 186.519 177.524 186.869 177.502 189.006 178.094 189.929 178.35 190.778 178.339 192.031 178.057 194.209 177.566 195.462 177.717 198.614 178.85 201.542 179.903 202.108 179.902 201.615 178.843 201.056 177.645 201.451 177.136 202.749 177.382 203.802 177.581 207.652 177.24 208.983 176.83 209.52 176.664 209.393 176.575 207.768 175.976 203.58 174.431 189.553 169.937 187.738 169.559 186.656 169.334 185.257 169.163 184.629 169.179 183.294 169.214 180 169.865 179.91 170.112 179.876 170.206 180.458 170.439 181.204 170.631 182.513 170.967 182.567 171.013 182.763 171.973 182.874 172.52 183.038 173.282 183.127 173.668 183.275 174.31 183.22 174.403 182.468 174.783 182.017 175.01 181.225 175.184 180.709 175.168 179.173 175.122 178.376 176.2 178.859 177.671 179.242 178.836 180.468 179.435 182.091 179.25ZM195.685 182.794C195.474 182.206 195.799 182.056 197.48 181.966 200.204 181.82 201.21 182.193 200.839 183.213 200.556 183.988 199.197 184.16 197.304 183.659 196.216 183.371 195.815 183.157 195.685 182.794ZM199.944 183.406C200.285 183.267 200.537 183.022 200.504 182.861 200.382 182.274 196.719 182.118 196.51 182.692 196.368 183.083 199.26 183.684 199.944 183.406ZM201.413 168.651C201.813 168.731 202.373 168.937 202.658 169.108 202.943 169.279 202.616 169.213 201.931 168.961 201.246 168.71 201.013 168.57 201.413 168.651ZM208.016 171.058C208.346 171.11 208.851 171.294 209.138 171.466 209.425 171.638 209.155 171.594 208.538 171.37 207.92 171.145 207.686 171.005 208.016 171.058Z" id="path10" fill="#A1CDF0"/><path d="M154.748 295.882C145.772 291.646 137.437 285.451 131.3 278.453 129.607 276.522 129.55 276.413 130.298 276.542 131.501 276.748 131.673 276.09 130.672 275.114 128.998 273.482 128.137 270.766 128.612 268.609 128.868 267.443 130.024 266.63 131.071 266.88 131.648 267.018 131.845 266.914 132.129 266.32 132.356 265.847 132.7 265.575 133.107 265.547 133.605 265.512 134.135 264.945 135.659 262.814 136.754 261.285 137.884 259.973 138.282 259.772 138.666 259.578 139.544 259.477 140.232 259.547 143.104 259.843 144.307 258.865 146.324 254.595 147.776 251.52 149.12 249.638 151.008 248.035 152.472 246.791 152.978 245.584 152.45 244.59 152.243 244.199 151.569 243.269 150.952 242.523 150.262 241.688 149.818 240.858 149.796 240.364 149.757 239.469 149.549 239.306 146.988 238.166 145.543 237.523 145.163 237.244 145.024 236.726 144.739 235.661 143.718 234.745 142.526 234.483 140.782 234.101 140.594 233.467 141.543 231.168 142.761 228.217 142.295 226.782 139.571 225.103 137.614 223.896 136.716 222.98 136.442 221.91 135.734 219.146 134.544 217.499 131.99 215.741 130.349 214.612 129.977 214.56 128.192 215.205 126.891 215.676 125.328 215.637 124.732 215.119 124.405 214.835 124.625 212.617 125.112 211.278 125.311 210.732 125.273 210.033 125 209.216 124.735 208.424 124.697 207.812 124.894 207.515 125.727 206.259 126.822 203.608 126.617 203.348 126.209 202.831 125.346 203.028 124.603 203.807 123.269 205.204 122.818 205.571 122.445 205.56 122.164 205.552 122.199 205.338 122.594 204.648 123.724 202.675 125.621 200.038 126.958 198.583 128.152 197.283 128.458 197.082 128.964 197.266 129.408 197.427 129.732 197.297 130.231 196.756 130.772 196.169 131.129 196.048 132.087 196.127 134.941 196.362 135.117 196.338 136.15 195.565 136.718 195.139 138.004 194.396 139.007 193.913 140.801 193.049 140.834 193.016 141.093 191.818 141.407 190.361 141.826 190.119 144.573 189.81 146.38 189.607 147.027 189.259 149.753 187.024 150.712 186.238 152.254 185.697 152.887 185.925 153.05 185.984 153.106 186.353 153.012 186.746 152.883 187.288 152.986 187.532 153.439 187.758 154.229 188.15 156.478 187.85 157.402 187.228 158.282 186.636 158.191 186.021 157.122 185.343 156.659 185.049 156.505 184.766 156.627 184.43 156.855 183.804 156.37 183.388 155.548 183.506 154.989 183.586 154.936 183.542 155.154 183.178 155.292 182.947 155.75 182.762 156.171 182.766 157.166 182.777 159.912 184.415 160.497 185.346 161.038 186.208 161.92 186.52 163.403 186.372 166.065 186.108 166.512 185.392 164.628 184.41 164 184.083 163.344 183.741 163.17 183.648 162.996 183.556 163.708 183.249 164.752 182.967 167.591 182.198 167.998 181.616 166.421 180.574 165.674 180.081 165.6 179.215 166.209 178.093 166.688 177.209 166.736 177.235 163.989 176.848 163.221 176.74 163.136 176.652 163.201 176.025 163.358 174.508 161.725 174.374 159.431 175.717 158.642 176.178 157.858 176.438 157.569 176.333 157.236 176.212 156.847 176.393 156.402 176.876 156.035 177.274 154.838 177.95 153.742 178.378 152.646 178.806 151.41 179.51 150.996 179.941 150.008 180.97 149.658 180.806 150.327 179.627L150.859 178.691 149.982 178.372C149.034 178.027 148.462 177.164 148.804 176.597 148.921 176.403 150.297 175.997 151.86 175.696 156.374 174.827 160.139 173.572 160.522 172.808 160.768 172.319 160.725 172.047 160.341 171.669 159.694 171.034 158.637 171.145 155.637 172.163 154.428 172.574 153.407 172.839 153.367 172.753 153.327 172.667 154.242 172.193 155.399 171.7 167.73 166.445 181.434 164.915 194.203 167.368 196.152 167.742 198.117 168.074 198.572 168.106 199.932 168.202 206.304 170.331 209.02 171.597 214.82 174.301 221.358 178.409 225.682 182.065 230.932 186.503 236.663 193.242 240.139 199.062 241.95 202.096 244.018 206.292 243.76 206.413 243.648 206.465 243.059 205.814 242.451 204.966 240.955 202.879 239.414 201.771 237.229 201.211L235.516 200.772 235.98 199.799 236.443 198.825 233.896 196.236C230.984 193.275 229.894 192.489 227.511 191.631 226.252 191.178 225.363 191.044 224.083 191.114 223.132 191.167 221.6 191.184 220.68 191.154 218.898 191.094 217.743 191.278 217.017 191.737 216.522 192.05 215.971 193.322 216.101 193.853 216.241 194.426 217.025 195.149 217.818 195.438 218.943 195.848 219.694 196.69 219.404 197.217 219.223 197.545 217.489 197.812 212.818 198.232 209.332 198.546 206.284 198.893 206.046 199.005 205.696 199.168 205.724 199.384 206.194 200.138 206.898 201.266 207.089 202.504 206.717 203.526 206.392 204.418 206.335 204.406 204.19 203.004 202.589 201.958 202.547 201.945 201.21 202.082 199.655 202.24 198.495 202.937 197.842 204.104 197.189 205.272 197.172 206.143 197.774 207.626 198.443 209.274 199.225 209.75 202.287 210.377L204.646 210.86 205.6 209.847C207.467 207.864 211.752 206.676 214.037 207.507 215.437 208.017 216.055 208.73 218.273 212.394 219.182 213.896 220.038 215.166 220.176 215.216 220.313 215.266 220.797 215.184 221.25 215.035L222.075 214.764 222.651 216.136C223.14 217.299 223.349 217.53 224.031 217.66 224.71 217.79 224.858 217.951 224.99 218.708 225.159 219.683 225.643 219.793 225.964 218.929 226.287 218.061 226.651 217.946 228.022 218.281 229.037 218.529 229.517 218.485 230.287 218.072 231.397 217.476 231.681 216.916 231.518 215.645 231.197 213.156 233.875 213.527 234.342 216.035 234.545 217.131 234.582 217.171 235.079 216.837 235.367 216.645 235.656 216.34 235.721 216.16 235.937 215.567 236.278 215.979 236.317 216.88 236.338 217.368 236.544 218.591 236.774 219.598 237.004 220.605 237.163 221.508 237.127 221.606 237.09 221.704 236.019 221.419 234.746 220.971 231.42 219.802 228.59 219.674 228.607 220.693 228.623 221.591 230.196 223.098 231.683 223.639 233.569 224.326 233.785 224.839 233.286 227.447 233.07 228.571 232.818 229.527 232.724 229.571 232.631 229.614 232.355 229.428 232.112 229.156 231.868 228.884 230.326 228.071 228.684 227.348 225.455 225.928 223.877 224.735 223.713 223.589 223.664 223.246 223.462 222.906 223.265 222.835 222.819 222.672 221.687 223.686 221.384 224.519 221.055 225.423 220.731 225.377 219.396 224.236 218.591 223.548 218.039 222.781 217.702 221.885 217.292 220.79 217.025 220.473 216.19 220.086 214.772 219.43 214.266 218.622 214.145 216.824 214.087 215.971 213.867 215.079 213.655 214.842 213.382 214.538 211.995 214.109 208.886 213.369 201.996 211.729 200.415 211.408 198.958 211.354 196.806 211.275 194.094 212.604 193.592 213.985 193.475 214.305 192.608 214.755 191.184 215.234 188.464 216.148 186.079 217.425 184.046 219.054 182.681 220.148 182.472 220.428 182.168 221.572 181.98 222.28 181.801 223.391 181.769 224.04 181.719 225.099 181.566 225.436 180.29 227.314 179.022 229.178 178.843 229.572 178.649 230.923 178.53 231.758 178.597 233.277 178.8 234.3 179.33 236.982 180.897 241.044 181.95 242.469 183.372 244.392 184.044 244.665 187.601 244.769 191.237 244.875 192.418 245.028 195.094 245.738 196.778 246.185 197.069 246.327 196.954 246.643 196.879 246.849 196.935 247.378 197.08 247.818 197.299 248.484 197.611 248.74 198.937 249.348 200.763 250.183 201.252 250.847 201.031 252.188 200.95 252.677 200.534 253.606 200.107 254.252 199.413 255.3 199.366 255.469 199.665 255.817 199.874 256.059 199.887 256.431 199.698 256.801 199.46 257.265 199.554 257.618 200.126 258.415 201.745 260.672 201.138 263.821 198.489 266.904 197.726 267.791 196.571 269.277 195.921 270.205 194.891 271.678 194.701 272.113 194.433 273.617 193.962 276.254 193.525 288.855 193.888 289.324 194.449 290.048 196.679 289.76 199.725 288.57 201.296 287.956 203.127 287.43 203.795 287.402 204.464 287.373 205.523 287.328 206.149 287.301 207.822 287.23 208.381 286.85 208.719 285.55 208.974 284.566 209.133 284.392 210.242 283.875 211.428 283.322 212.135 282.515 212.633 281.147 212.76 280.799 213.645 279.898 214.6 279.145 215.556 278.393 217.138 277.019 218.117 276.092 219.891 274.412 236.513 255.879 236.696 255.378 236.758 255.208 236.387 255.032 235.655 254.883 234.032 254.554 233.061 253.564 232.585 251.754 232.372 250.943 231.934 249.432 231.612 248.397 230.678 245.391 230.628 244.962 231.02 243.333 231.283 242.243 231.292 240.88 231.052 238.68 230.672 235.195 230.763 234.107 231.506 233.246L232.016 232.656 232.339 234.467C232.516 235.464 233.04 239.625 233.502 243.715 233.965 247.805 234.455 251.192 234.592 251.242 234.728 251.291 235.174 251.124 235.583 250.871 235.992 250.617 237.27 250.336 238.423 250.245 240.787 250.059 242.031 249.425 243.126 247.848 244.672 245.62 244.036 242.823 241.478 240.607 239.836 239.183 239.297 238.013 240.023 237.447 240.829 236.818 242.016 237.436 243.025 239.011 243.538 239.812 244.324 240.858 244.772 241.335 246.754 243.447 247.04 245.683 246.13 251.953 245.813 254.139 245.543 256.44 245.529 257.066 245.494 258.7 243.511 262.903 239.982 268.826 229.351 286.672 210.312 298.808 189.475 301.022 182.221 301.793 175.862 301.539 169.405 300.22 167.815 299.896 166.141 299.607 165.685 299.579 164.507 299.506 157.18 297.029 154.748 295.882ZM220.827 285.883C221.865 285.47 222.736 284.422 223.283 282.926 224.137 280.596 224.67 279.888 226.085 279.202 226.815 278.849 227.433 278.5 227.459 278.427 227.567 278.13 227.145 275.384 226.954 275.142 226.614 274.711 225.915 275.136 225.379 276.098 224.73 277.265 223.884 277.76 222.264 277.92L220.961 278.048 220.417 279.544C219.926 280.893 219.737 281.125 218.499 281.904 216.89 282.915 216.395 283.885 217.019 284.806 217.579 285.631 219.848 286.273 220.827 285.883ZM167.824 176.104C168.719 176.444 169.782 176.092 170.35 175.266 170.663 174.81 171.049 174.566 171.369 174.62 172.281 174.772 172.74 174.461 172.871 173.602 173.027 172.588 172.785 172.28 171.446 171.787 170.046 171.272 169.322 171.398 168.489 172.301 168.036 172.792 167.525 173.034 166.958 173.027 165.827 173.011 165.111 173.827 165.353 174.856 165.502 175.49 165.673 175.639 166.378 175.747 166.843 175.818 167.494 175.979 167.824 176.104ZM181.996 179.743C182.437 179.684 183.264 179.402 183.834 179.115 185.687 178.184 186.648 178.049 188.354 178.477 189.631 178.797 190.438 178.792 192.167 178.451L194.361 178.019 197.923 179.145C202.482 180.585 203.211 180.559 202.236 178.986 201.621 177.995 201.867 177.49 202.799 177.829 203.455 178.068 209.165 177.526 210.342 177.114 211.43 176.732 210.232 176.234 200.416 172.986 189.337 169.321 186.991 168.698 184.559 168.779 182.477 168.848 178.887 169.671 178.879 170.081 178.873 170.433 179.917 170.845 181.184 170.99 181.979 171.081 182.059 171.184 182.399 172.544 182.599 173.345 182.651 174.128 182.515 174.285 182.379 174.441 181.637 174.631 180.866 174.706 178.534 174.933 177.675 176.221 178.573 178.145 178.901 178.85 179.236 179.136 180.094 179.449 180.7 179.669 181.555 179.801 181.996 179.743ZM199.688 183.921C200.337 183.838 200.69 183.62 200.839 183.213 201.21 182.193 200.204 181.82 197.48 181.966 195.799 182.056 195.474 182.206 195.685 182.794 195.906 183.411 198.335 184.096 199.688 183.921ZM126.382 272.072C123.547 268.223 120.107 261.437 118.196 255.923 115.979 249.523 114.492 240.778 114.462 233.961 114.447 230.341 115.006 224.759 115.75 221.117 116.074 219.527 116.365 217.854 116.396 217.399 116.551 215.111 119.773 206.345 120.377 206.565 120.508 206.613 120.653 207.215 120.7 207.904 120.748 208.622 121.007 209.375 121.307 209.67 121.672 210.028 121.912 211.007 122.099 212.902 122.247 214.397 122.669 216.385 123.037 217.32 123.663 218.914 123.673 219.111 123.191 220.436 122.907 221.214 122.22 222.503 121.664 223.301 120.695 224.688 120.658 224.793 120.8 225.768 120.947 226.769 120.937 226.793 120.175 227.266 119.071 227.951 118.738 229.104 119.214 230.596 120.023 233.136 120.297 234.665 120.339 236.892 120.406 240.437 120.642 241.634 121.869 244.664 123.262 248.105 123.328 248.603 123.037 253.437 122.632 260.173 123.669 265.725 126.334 271.076 127.016 272.446 127.546 273.556 127.511 273.543 127.477 273.53 126.969 272.868 126.382 272.072ZM242.257 229.479C241.457 228.477 241.374 227.783 241.888 226.372 242.258 225.356 242.228 225.039 241.629 223.633 240.654 221.348 240.716 219.801 241.801 219.295 242.551 218.945 242.666 219.042 242.828 220.153 242.919 220.774 242.799 221.523 242.501 222.2L242.03 223.266 243.283 224.742C244.755 226.476 244.963 227.158 244.154 227.586 243.448 227.959 243.292 228.394 243.596 229.143 243.826 229.708 243.484 230.477 243.07 230.324 242.963 230.285 242.597 229.904 242.257 229.479ZM160.958 183.779C161.093 183.673 161.315 183.627 161.453 183.676 161.59 183.726 161.592 183.854 161.457 183.96 161.322 184.067 161.1 184.113 160.962 184.063 160.825 184.013 160.823 183.885 160.958 183.779Z" id="path9" fill="#64B0EE"/></g><path d="M195.097 355.871C191.648 354.417 188.946 352.068 185.605 347.618 168.264 324.522 149.87 256.576 144.005 193.946 142.458 177.426 141.835 157.777 142.508 146.674 143.594 128.729 146.426 117.998 151.412 112.925 153.502 110.799 155.327 109.889 157.925 109.675 165.181 109.079 172.23 116.436 180.205 132.925 182.767 138.223 186.712 147.901 188.891 154.237 189.607 156.317 191.584 163.45 191.793 163.971 191.887 164.207 183.75 163.735 183.549 163.525 183.418 163.387 182.125 159.161 181.377 157.001 179.499 151.578 176.069 142.983 173.825 138.077 169.125 127.799 163.701 119.901 160.078 118.06 158.54 117.278 158.479 117.281 157.411 118.18 152.302 122.479 149.41 143.144 150.366 168.527 151.493 198.471 155.671 229.307 163.191 263.183 172.639 305.744 186.815 341.335 196.924 347.874 198.509 348.899 198.979 348.914 200.092 347.978 201.35 346.919 202.334 345.082 203.471 341.672 205.984 334.131 207.145 323.713 207.213 308.077L207.253 298.971C209.975 297.65 211.046 297.26 213.874 296.052 214.208 296.211 215.096 319.834 214.693 324.128 213.234 339.658 210.56 348.732 206.123 353.215 203.808 355.554 202.129 356.335 199.121 356.477 197.148 356.569 196.536 356.477 195.097 355.871ZM241.87-39.1827C257.699-27.8375 228.027-49.104 241.87-39.1827ZM265.47-79.9931C265.368-80.2598 265.419-80.6133 265.584-80.7785 265.791-80.9852 265.885-80.8338 265.885-80.2935 265.885-79.3961 265.74-79.2909 265.47-79.9931ZM265.958-83.7263C265.961-84.3663 266.021-84.5938 266.091-84.232 266.16-83.8701 266.157-83.3465 266.085-83.0683 266.012-82.7902 265.955-83.0862 265.958-83.7263ZM254.539-83.986C254.539-84.0489 254.743-84.1783 254.991-84.2736 255.25-84.3729 255.366-84.3242 255.265-84.1593 255.094-83.8829 254.539-83.7504 254.539-83.986ZM255.121-84.8543C255.121-84.9147 255.35-85.1438 255.63-85.3634 256.092-85.7252 256.102-85.7149 255.74-85.2535 255.36-84.7689 255.121-84.6148 255.121-84.8543ZM263.558-85.3263C263.558-85.4863 263.696-85.6172 263.866-85.6172 264.035-85.6172 264.093-85.4863 263.994-85.3263 263.895-85.1663 263.756-85.0353 263.686-85.0353 263.615-85.0353 263.558-85.1663 263.558-85.3263ZM255.994-86.0179C255.994-86.0783 256.223-86.3074 256.503-86.527 256.964-86.8889 256.975-86.8786 256.613-86.4172 256.233-85.9326 255.994-85.7785 255.994-86.0179ZM259.799-86.9505C259.813-87.2894 259.882-87.3583 259.974-87.1263 260.058-86.9163 260.048-86.6653 259.951-86.5687 259.855-86.472 259.786-86.6439 259.799-86.9505ZM266.249-87.5081C266.252-88.1481 266.312-88.3756 266.381-88.0138 266.451-87.6519 266.448-87.1283 266.375-86.8501 266.303-86.572 266.246-86.868 266.249-87.5081ZM256.867-87.1815C256.867-87.2419 257.096-87.471 257.376-87.6906 257.837-88.0525 257.847-88.0422 257.486-87.5808 257.105-87.0962 256.867-86.9421 256.867-87.1815ZM258.03-88.6361C258.03-88.6965 258.259-88.9256 258.539-89.1452 259.001-89.507 259.011-89.4967 258.649-89.0353 258.269-88.5508 258.03-88.3967 258.03-88.6361ZM258.903-89.7997C258.903-89.8601 259.132-90.0892 259.412-90.3088 259.873-90.6707 259.884-90.6604 259.522-90.199 259.142-89.7144 258.903-89.5603 258.903-89.7997ZM266.54-91.5808C266.543-92.2208 266.603-92.4484 266.672-92.0865 266.742-91.7246 266.739-91.201 266.666-90.9229 266.594-90.6447 266.537-90.9408 266.54-91.5808ZM260.067-91.2543C260.067-91.3147 260.296-91.5438 260.576-91.7634 261.037-92.1252 261.047-92.1149 260.686-91.6535 260.306-91.1689 260.067-91.0148 260.067-91.2543ZM260.939-92.4179C260.939-92.4783 261.168-92.7074 261.448-92.927 261.91-93.2889 261.92-93.2786 261.558-92.8172 261.178-92.3326 260.939-92.1785 260.939-92.4179ZM261.812-93.5816C261.812-93.6419 262.041-93.871 262.321-94.0906 262.783-94.4525 262.793-94.4422 262.431-93.9808 262.051-93.4962 261.812-93.3421 261.812-93.5816ZM266.831-95.3626C266.834-96.0026 266.894-96.2302 266.963-95.8683 267.033-95.5065 267.03-94.9828 266.957-94.7047 266.884-94.4265 266.828-94.7226 266.831-95.3626ZM262.976-95.0361C262.976-95.0965 263.205-95.3256 263.485-95.5452 263.946-95.907 263.956-95.8967 263.595-95.4353 263.215-94.9508 262.976-94.7967 262.976-95.0361ZM263.848-96.1997C263.848-96.2601 264.078-96.4892 264.358-96.7088 264.819-97.0707 264.829-97.0604 264.467-96.599 264.087-96.1144 263.848-95.9603 263.848-96.1997ZM265.012-97.6543C265.012-97.7147 265.241-97.9438 265.521-98.1634 265.983-98.5252 265.993-98.5149 265.631-98.0535 265.251-97.5689 265.012-97.4148 265.012-97.6543ZM266.991-99.1621C266.925-99.7318 266.976-100.263 267.105-100.343 267.234-100.423 267.339-99.9565 267.339-99.3071 267.339-97.8495 267.153-97.7721 266.991-99.1621ZM265.885-98.8179C265.885-98.8783 266.114-99.1074 266.394-99.327 266.855-99.6889 266.866-99.6786 266.504-99.2172 266.124-98.7326 265.885-98.5785 265.885-98.8179Z" id="path3" fill="#57648C"/><path d="M146.245 322.991C145.476 322.687 145.06 321.999 145.015 321.954 144.928 321.867 154.066 297.997 154.261 297.802 154.464 297.599 157.575 298.863 157.575 299.148 157.575 299.824 148.434 323.195 148.18 323.17 148.024 323.154 147.015 323.295 146.245 322.991ZM201.856 180.63C201.085 180.317 200.61 179.477 200.571 179.438 200.532 179.399 204.429 169.151 209.23 156.665 214.031 144.179 217.588 135.696 217.591 135.657 217.596 135.603 215.953 135.627 215.903 135.637 215.841 135.65 213.66 135.784 213.456 135.905 213.252 136.026 215.266 133.303 217.931 129.854 225.466 120.104 224.908 120.77 224.913 121.524 224.924 123.324 223.677 139.044 223.507 139.237 223.4 139.359 222.408 137.863 222.348 137.831 222.291 137.8 221.19 136.385 221.095 136.385 221 136.385 217.707 145.017 212.853 157.67 207.999 170.323 203.897 180.669 203.737 180.661 203.577 180.653 202.627 180.943 201.856 180.63Z" id="path2" stroke-width="0.964411" fill="#57648C"/><use width="100%" height="100%" xlink:href="#path3" id="use5" display="none" transform="translate(115.145 -37.7894)"></use><path d="M92.548 320.688C88.6423 320.112 85.4349 317.845 84.0706 314.696 83.2895 312.893 83.0495 309.441 83.5264 306.872 85.0057 298.902 91.9551 287.021 103.382 272.927 106.234 269.41 112.299 262.404 114.837 259.696L116.252 258.186 119.815 266.007 117.78 268.388C108.264 279.523 100.701 289.045 96.0863 297.111 93.6526 301.365 92.3987 304.276 91.5902 307.551 90.84 310.59 91.1313 312.048 92.5902 312.557 96.6938 313.987 106.976 311.046 119.452 304.873 166.721 281.487 238.52 219.9 264.016 180.87 269.19 172.949 271.845 166.804 271.684 163.123 271.603 161.282 271.548 161.146 270.725 160.732 269.591 160.161 265.626 160.222 262.871 160.853 254.497 162.769 242.49 168.245 228.576 176.494 226.993 177.432 225.673 178.163 225.641 178.119 225.115 177.838 218.966 173.601 219.164 173.414 220.013 172.614 232.759 164.852 238.871 161.786 251.385 155.508 259.521 152.74 266.507 152.387 271.416 152.139 274.384 153.007 276.869 155.42 282.516 160.899 280.144 171.198 269.621 186.896 248.542 218.341 197.636 265.166 151.889 295.192 124.378 313.248 103.354 322.281 92.548 320.688ZM408.31 5.27286C424.14 16.6181 394.467-4.64847 408.31 5.27286ZM431.91-35.5375C431.808-35.8043 431.859-36.1577 432.025-36.323 432.231-36.5296 432.325-36.3783 432.325-35.8379 432.325-34.9405 432.18-34.8353 431.91-35.5375ZM432.398-39.2707C432.401-39.9107 432.461-40.1382 432.531-39.7764 432.6-39.4145 432.598-38.8909 432.525-38.6127 432.452-38.3346 432.395-38.6306 432.398-39.2707ZM420.98-39.5305C420.98-39.5934 421.183-39.7228 421.431-39.818 421.69-39.9173 421.807-39.8686 421.705-39.7037 421.534-39.4273 420.98-39.2948 420.98-39.5305ZM421.561-40.3987C421.561-40.4591 421.791-40.6882 422.071-40.9078 422.532-41.2696 422.542-41.2593 422.18-40.7979 421.8-40.3134 421.561-40.1593 421.561-40.3987ZM429.998-40.8707C429.998-41.0307 430.136-41.1616 430.306-41.1616 430.475-41.1616 430.533-41.0307 430.434-40.8707 430.335-40.7107 430.197-40.5798 430.126-40.5798 430.056-40.5798 429.998-40.7107 429.998-40.8707ZM422.434-41.5623C422.434-41.6227 422.663-41.8518 422.943-42.0714 423.405-42.4333 423.415-42.423 423.053-41.9616 422.673-41.477 422.434-41.3229 422.434-41.5623ZM426.239-42.4949C426.253-42.8338 426.322-42.9027 426.415-42.6707 426.499-42.4607 426.488-42.2098 426.392-42.1131 426.295-42.0164 426.226-42.1883 426.239-42.4949ZM432.689-43.0525C432.692-43.6925 432.752-43.9201 432.822-43.5582 432.891-43.1963 432.889-42.6727 432.816-42.3946 432.743-42.1164 432.686-42.4125 432.689-43.0525ZM423.307-42.726C423.307-42.7864 423.536-43.0155 423.816-43.2351 424.277-43.5969 424.288-43.5866 423.926-43.1252 423.546-42.6406 423.307-42.4865 423.307-42.726ZM424.471-44.1805C424.471-44.2409 424.7-44.47 424.98-44.6896 425.441-45.0515 425.451-45.0412 425.089-44.5798 424.709-44.0952 424.471-43.9411 424.471-44.1805ZM425.343-45.3441C425.343-45.4045 425.572-45.6336 425.852-45.8532 426.314-46.2151 426.324-46.2048 425.962-45.7434 425.582-45.2588 425.343-45.1047 425.343-45.3441ZM432.98-47.1252C432.983-47.7652 433.043-47.9928 433.113-47.6309 433.182-47.2691 433.18-46.7454 433.107-46.4673 433.034-46.1891 432.977-46.4852 432.98-47.1252ZM426.507-46.7987C426.507-46.8591 426.736-47.0882 427.016-47.3078 427.477-47.6696 427.488-47.6593 427.126-47.1979 426.746-46.7134 426.507-46.5593 426.507-46.7987ZM427.38-47.9623C427.38-48.0227 427.609-48.2518 427.889-48.4714 428.35-48.8333 428.36-48.823 427.999-48.3616 427.619-47.877 427.38-47.7229 427.38-47.9623ZM428.252-49.126C428.252-49.1864 428.481-49.4155 428.761-49.6351 429.223-49.9969 429.233-49.9866 428.871-49.5252 428.491-49.0406 428.252-48.8865 428.252-49.126ZM433.271-50.907C433.274-51.547 433.334-51.7746 433.404-51.4127 433.473-51.0509 433.47-50.5272 433.398-50.2491 433.325-49.971 433.268-50.267 433.271-50.907ZM429.416-50.5805C429.416-50.6409 429.645-50.87 429.925-51.0896 430.387-51.4515 430.397-51.4412 430.035-50.9798 429.655-50.4952 429.416-50.3411 429.416-50.5805ZM430.289-51.7441C430.289-51.8045 430.518-52.0336 430.798-52.2532 431.259-52.6151 431.27-52.6048 430.908-52.1434 430.528-51.6588 430.289-51.5047 430.289-51.7441ZM431.452-53.1987C431.452-53.2591 431.681-53.4882 431.961-53.7078 432.423-54.0696 432.433-54.0593 432.071-53.5979 431.691-53.1134 431.452-52.9593 431.452-53.1987ZM433.431-54.7065C433.365-55.2762 433.416-55.8076 433.545-55.8873 433.674-55.967 433.78-55.5009 433.78-54.8515 433.78-53.3939 433.594-53.3165 433.431-54.7065ZM432.325-54.3623C432.325-54.4227 432.554-54.6518 432.834-54.8714 433.296-55.2333 433.306-55.223 432.944-54.7616 432.564-54.277 432.325-54.1229 432.325-54.3623Z" id="path3-4" fill="#57648C"/><path d="M278.725 291.455C260.249 289.852 234.843 283.813 206.143 274.201 197.691 271.371 182.704 265.985 182.381 265.661 182.281 265.562 184.808 258.548 185.045 258.267 185.081 258.225 186.864 258.856 189.008 259.669 220.704 271.696 254.724 280.833 276.834 283.259 282.122 283.839 291.311 283.757 294.143 283.104 299.635 281.839 300.922 279.807 298.067 275.402 293.03 267.631 279.48 255.371 257.198 244.658 253.262 242.765 251.823 242.78 251.839 242.385 251.958 239.397 251.992 238.897 252.129 236.624 252.181 235.762 263.257 241.398 269.04 244.876 289.614 257.249 303.007 267.577 306.235 275.844 307.171 278.239 307.193 282.189 306.281 284.178 304.564 287.928 300.145 290.364 293.27 291.35 291.397 291.619 281.441 291.691 278.725 291.455ZM125.707 258.997C126.027 258.773 132.253 252.424 132.752 251.656 133.48 250.538 126.358 246.835 111.705 237.938 72.534 214.153 57.8084 201.75 53.5351 190.563 52.728 188.45 52.7689 184.633 53.6185 182.786 55.0967 179.571 58.7142 177.196 63.8464 176.071 66.2714 175.539 67.5997 175.456 73.634 175.457 84.6325 175.46 93.8856 177.847 111.518 182.018 116.998 183.314 129.47 186.64 129.616 186.82 129.695 186.917 126.444 190.927 124.407 193.296 124.199 193.537 105.586 186.01 84.6984 182.948 71.1018 180.955 68.5382 181.886 65.1897 182.48 56.5251 184.016 60.2571 191.085 67.2659 196.967 80.391 207.981 94.1637 218.158 121.628 228.913 134.985 234.143 139.418 234.655 139.597 233.688 139.921 231.935 140.461 222.846 140.49 222.824 140.519 222.802 143.704 226.466 147.567 230.965 151.43 235.464 157.892 242.981 161.927 247.67 165.962 252.358 169.216 256.236 169.158 256.287 169.1 256.339 159.889 256.986 148.689 257.726 137.489 258.466 127.605 259.146 126.725 259.237 125.297 259.385 125.188 259.359 125.707 258.997Z" id="path4" fill="#F6C026"/></g></g></svg>